<?xml version="1.0" standalone="no"?>
<!DOCTYPE svg PUBLIC "-//W3C//DTD SVG 20010904//EN"
 "http://www.w3.org/TR/2001/REC-SVG-20010904/DTD/svg10.dtd">
<svg version="1.0" xmlns="http://www.w3.org/2000/svg"
 width="390.960000pt" height="390.960000pt" viewBox="0 0 390.960000 390.960000"
 preserveAspectRatio="xMidYMid meet">
<metadata>
Created by potrace 1.16, written by Peter Selinger 2001-2019
</metadata>
<g transform="translate(0.000000,390.960000) scale(0.072000,-0.072000)"
fill="#3C3E26" stroke="none">
<path d="M2336 4999 c-19 -28 -21 -92 -3 -108 17 -14 37 25 37 72 0 49 -14 64
-34 36z"/>
<path d="M1900 4906 c0 -2 8 -22 19 -45 20 -45 46 -70 73 -71 10 0 29 -18 44
-41 14 -22 28 -38 31 -35 3 3 -5 20 -19 38 -14 18 -31 50 -37 71 -13 39 -65
87 -94 87 -10 0 -17 -2 -17 -4z"/>
<path d="M2326 4848 c-8 -31 -8 -38 3 -38 12 0 22 43 12 53 -5 5 -11 -2 -15
-15z"/>
<path d="M2243 4760 c3 -23 16 -55 30 -73 14 -18 27 -41 30 -52 7 -25 1 48 -9
95 -7 36 -30 70 -47 70 -6 0 -7 -17 -4 -40z"/>
<path d="M2125 4755 c-3 -8 -7 -22 -10 -31 -3 -8 2 -32 11 -52 15 -35 16 -36
30 -18 16 23 18 54 4 90 -11 29 -28 34 -35 11z"/>
<path d="M2495 4714 c-17 -37 -14 -68 8 -62 17 6 47 67 40 84 -9 25 -30 15
-48 -22z"/>
<path d="M2361 4691 c-29 -40 -26 -46 9 -21 17 12 30 28 30 36 0 23 -17 16
-39 -15z"/>
<path d="M2095 4670 c5 -8 17 -28 28 -43 10 -16 17 -30 15 -32 -2 -2 -26 7
-53 20 -37 19 -51 22 -62 13 -23 -19 22 -58 68 -58 21 0 44 -3 53 -6 18 -7 86
-98 86 -115 0 -6 20 -38 45 -71 24 -33 50 -78 56 -101 6 -23 26 -89 45 -146
19 -57 34 -105 34 -107 0 -11 -92 44 -155 91 -70 51 -71 53 -67 92 6 58 -52
148 -72 114 -9 -14 15 -74 40 -102 28 -30 31 -44 7 -34 -27 10 35 -52 87 -88
25 -17 55 -41 68 -54 12 -13 43 -34 70 -45 26 -12 64 -40 84 -62 31 -35 36
-37 30 -16 -4 14 -29 67 -55 118 -26 51 -55 121 -63 154 -9 34 -22 71 -29 83
-14 22 -35 132 -35 183 0 17 -4 34 -10 37 -6 4 -7 -19 -3 -60 3 -36 4 -65 1
-65 -3 0 -23 27 -44 61 -22 33 -53 79 -69 102 -17 23 -37 56 -44 74 -7 17 -24
42 -38 55 -15 12 -23 16 -18 8z"/>
<path d="M2791 4587 c-21 -23 -31 -97 -13 -97 29 0 68 99 45 113 -6 4 -20 -4
-32 -16z"/>
<path d="M2418 4567 c-19 -27 -24 -75 -13 -134 l7 -42 42 32 c60 47 81 77 54
77 -6 0 -29 -19 -51 -42 -26 -29 -38 -36 -34 -23 7 25 20 155 15 155 -2 0 -10
-11 -20 -23z"/>
<path d="M2666 4433 c-7 -22 6 -72 19 -75 12 -4 19 36 11 68 -7 28 -22 31 -30
7z"/>
<path d="M2736 4425 c-3 -8 -1 -15 3 -15 5 0 11 7 15 15 3 8 1 15 -3 15 -5 0
-11 -7 -15 -15z"/>
<path d="M1895 4400 c-11 -18 43 -78 81 -90 19 -7 37 -10 40 -8 10 11 -31 71
-60 89 -35 21 -52 24 -61 9z"/>
<path d="M2519 4358 c0 -7 -2 -23 -5 -36 -4 -22 21 -72 36 -72 10 0 19 49 10
55 -4 3 -10 18 -13 35 -6 29 -26 42 -28 18z"/>
<path d="M2787 4333 c-4 -3 -7 -15 -7 -26 0 -19 1 -20 20 -2 11 10 20 22 20
27 0 10 -24 11 -33 1z"/>
<path d="M2750 4285 c-8 -9 -8 -15 -2 -15 12 0 26 19 19 26 -2 2 -10 -2 -17
-11z"/>
<path d="M2030 4286 c0 -2 8 -10 18 -17 15 -13 16 -12 3 4 -13 16 -21 21 -21
13z"/>
<path d="M2580 4180 c0 -6 17 -37 37 -68 20 -31 36 -61 34 -67 -2 -5 -3 -63
-2 -129 l1 -118 -21 25 c-11 15 -33 35 -49 47 l-28 20 3 -26 c1 -14 18 -42 38
-62 36 -38 77 -120 77 -153 0 -11 11 -47 25 -81 14 -34 25 -65 25 -70 0 -12
-82 22 -110 47 -14 12 -34 25 -44 29 -19 6 -19 6 -3 -12 23 -25 22 -30 -10
-31 -55 -1 -63 -2 -63 -11 0 -5 8 -14 18 -19 14 -7 30 -5 60 10 l40 20 42 -30
c23 -16 54 -33 71 -36 16 -4 29 -10 29 -13 0 -4 24 -39 54 -78 40 -54 57 -88
69 -135 8 -35 18 -75 21 -89 5 -19 4 -20 -2 -6 -7 15 -14 1 -36 -67 -23 -72
-37 -97 -84 -149 -30 -35 -65 -70 -77 -79 -35 -29 -138 -77 -151 -72 -21 8
-73 -26 -100 -66 -27 -42 -88 -201 -79 -209 3 -3 5 -1 5 4 0 6 7 19 15 30 12
16 12 10 -2 -36 -23 -83 -34 -103 -28 -52 3 23 3 42 1 42 -3 0 -10 -19 -16
-42 -7 -24 -23 -60 -37 -81 -22 -32 -25 -44 -20 -87 4 -30 16 -63 30 -83 53
-69 117 -233 117 -296 0 -101 -77 -209 -185 -261 -36 -17 -67 -35 -70 -40 -9
-15 -37 -12 -75 9 -19 10 -46 22 -60 26 -42 13 -241 148 -323 219 -42 37 -77
64 -77 61 0 -13 -56 38 -103 93 -64 76 -181 263 -212 340 -28 70 -77 233 -71
239 2 2 15 -27 30 -64 31 -78 29 -67 -10 72 -28 96 -29 109 -29 305 1 163 4
218 18 270 27 102 99 302 118 330 9 14 39 65 65 114 64 116 61 111 121 187 47
59 176 182 264 250 35 28 36 49 1 30 -11 -6 -52 -37 -93 -70 -40 -33 -76 -58
-79 -56 -3 2 -24 -18 -45 -46 -22 -27 -44 -49 -49 -49 -4 0 -3 8 4 18 7 9 -11
-7 -40 -37 -113 -118 -255 -368 -303 -536 -63 -216 -79 -442 -43 -626 40 -212
147 -459 267 -619 79 -105 213 -241 286 -291 27 -18 57 -40 68 -50 34 -29 171
-96 245 -120 39 -12 73 -25 75 -30 3 -4 -22 -33 -54 -64 -33 -31 -58 -62 -55
-69 5 -12 -53 -52 -63 -43 -2 3 5 11 17 17 12 6 20 14 17 16 -3 3 -36 -11 -75
-30 -80 -40 -210 -79 -264 -80 -21 0 -38 -4 -38 -8 0 -4 9 -8 19 -8 32 0 35
-21 7 -46 -14 -14 -26 -29 -26 -35 0 -11 10 -6 55 27 28 20 135 57 143 49 2
-1 -6 -21 -17 -43 -24 -47 -43 -116 -42 -153 1 -25 -10 -44 -92 -163 -31 -45
-36 -73 -6 -36 95 118 159 226 159 273 0 19 71 122 117 170 9 9 38 24 64 31
74 22 110 44 172 104 31 31 65 57 75 57 9 0 16 7 15 15 -2 10 17 24 52 39 30
13 66 34 81 48 14 13 28 23 29 21 2 -2 -21 -55 -51 -118 -30 -65 -51 -123 -48
-132 4 -13 1 -16 -10 -12 -9 3 -16 2 -16 -4 0 -6 -32 -34 -71 -63 -39 -29 -88
-76 -110 -106 -35 -46 -99 -184 -99 -211 0 -24 -140 -139 -212 -175 -77 -38
-113 -71 -191 -176 -24 -34 -48 -51 -103 -75 -83 -37 -124 -62 -124 -77 0 -8
4 -8 14 0 7 6 37 19 67 30 30 10 62 22 73 26 16 7 17 5 11 -16 -10 -32 -56
-97 -92 -131 -30 -29 -188 -118 -208 -118 -14 0 -60 -48 -53 -55 3 -3 24 9 47
26 24 17 62 39 84 50 71 33 100 50 150 86 46 34 47 34 47 11 0 -12 -12 -43
-26 -68 -32 -56 -46 -90 -36 -90 14 0 92 161 92 190 0 16 4 31 9 34 4 3 16 27
26 53 10 26 29 62 42 79 12 17 23 36 23 43 0 22 85 96 145 125 33 17 85 47
116 67 l56 38 -5 -92 c-4 -78 -9 -98 -33 -137 -39 -61 -61 -110 -56 -123 2 -7
14 8 26 32 13 24 36 62 52 84 26 35 29 48 28 105 -1 57 3 74 39 146 22 44 48
105 57 134 25 79 73 141 145 190 35 23 68 42 72 42 4 0 9 -10 9 -22 1 -22 2
-22 8 2 7 27 29 66 77 139 16 25 52 90 78 144 27 53 52 97 57 97 9 0 16 -52
24 -188 5 -83 3 -112 -11 -155 -28 -81 -24 -153 10 -211 20 -34 31 -45 36 -36
6 9 15 -1 30 -34 20 -42 22 -57 16 -154 -10 -188 -11 -188 -67 -250 -65 -71
-72 -90 -74 -187 -1 -73 -4 -84 -33 -126 -36 -53 -46 -103 -12 -59 11 14 23
34 26 45 4 11 14 28 23 39 9 10 19 45 22 85 8 86 26 128 71 174 21 21 45 52
54 70 21 40 44 123 44 160 0 15 3 27 6 27 3 0 25 -16 49 -36 44 -36 95 -110
95 -137 0 -27 33 -117 43 -117 5 0 6 8 2 18 -9 22 -24 116 -20 120 2 2 28 -3
58 -12 30 -9 63 -16 73 -16 9 0 26 -7 36 -17 10 -9 18 -11 18 -5 0 14 -47 47
-80 57 -69 20 -128 56 -138 83 -5 15 -37 50 -71 78 -48 39 -61 55 -61 77 0 15
-14 58 -31 95 -68 148 -74 186 -43 294 22 77 24 99 19 202 -3 63 -8 123 -11
133 -7 23 7 6 76 -92 119 -169 175 -230 222 -241 29 -6 58 -38 58 -64 0 -8 9
-26 20 -40 11 -14 20 -35 20 -46 0 -12 6 -27 14 -33 7 -6 16 -24 19 -39 4 -15
25 -47 47 -72 l41 -45 -24 40 c-33 57 -68 145 -56 145 5 0 32 -16 59 -35 53
-37 108 -59 174 -69 23 -3 51 -16 67 -32 23 -22 27 -23 24 -8 -2 11 -4 22 -4
27 -1 4 -22 17 -48 28 -27 12 -70 32 -98 45 -27 12 -64 28 -82 34 -35 13 -106
92 -139 155 -13 25 -42 54 -78 78 -40 28 -64 53 -81 86 -13 26 -31 54 -40 61
-20 17 -101 134 -89 128 79 -38 117 -52 168 -62 51 -9 68 -18 103 -53 50 -49
114 -88 163 -98 73 -15 128 -57 228 -173 28 -32 53 -48 104 -67 37 -13 76 -24
85 -24 10 0 43 -7 75 -17 34 -10 63 -14 75 -9 39 18 105 32 131 28 15 -2 5 4
-22 12 -40 14 -63 14 -133 6 -83 -10 -87 -10 -152 18 -36 16 -76 32 -89 36
-12 3 -33 23 -46 43 -13 20 -40 53 -60 71 -20 19 -36 39 -36 43 0 4 34 8 75 8
43 0 75 4 75 10 0 6 -38 10 -94 10 -52 0 -97 4 -100 9 -3 4 -27 14 -53 21 -27
7 -57 21 -69 31 -11 11 -30 19 -42 19 -12 0 -22 5 -22 12 0 7 -10 23 -22 36
-13 13 -33 33 -45 45 -22 24 -151 68 -202 71 -22 1 -43 17 -93 73 -65 72 -89
123 -103 216 -5 28 -22 55 -65 103 -57 63 -100 147 -100 195 0 11 -4 29 -10
39 -13 25 33 218 67 281 29 54 92 105 200 160 79 41 138 92 128 110 -4 5 7 28
23 52 16 23 40 60 54 82 14 22 44 56 67 75 23 19 69 60 100 90 32 30 97 76
144 103 47 26 89 52 92 57 3 6 21 11 38 11 18 1 24 3 14 6 -15 4 -16 7 -5 21
7 9 -3 5 -22 -9 -50 -36 -101 -66 -129 -74 -22 -7 -23 -5 -17 20 6 24 -1 19
-46 -30 -29 -32 -55 -62 -56 -67 -2 -5 -30 -22 -62 -38 -32 -16 -61 -34 -65
-40 -15 -24 -25 -6 -25 48 0 31 -5 73 -10 93 -17 62 -20 240 -5 274 21 45 45
119 40 123 -2 3 -12 -12 -21 -32 -10 -20 -21 -36 -25 -36 -11 0 -29 68 -29
107 0 17 -4 34 -9 38 -11 6 -49 118 -54 160 -2 17 -6 37 -10 45 -3 8 -8 22
-10 30 -13 39 -5 -41 8 -85 9 -27 15 -61 13 -75 -1 -14 6 -37 16 -52 10 -15
20 -46 23 -70 2 -23 9 -48 14 -54 11 -13 4 -192 -8 -237 l-8 -27 -40 50 c-73
91 -126 217 -145 347 -5 37 -13 133 -17 213 -4 80 -9 137 -11 127 -4 -22 -22
-12 -22 12 0 10 -9 30 -21 45 -21 27 -39 34 -39 16z m-1344 -1128 c-12 -11
-17 7 -9 34 l8 29 3 -28 c2 -16 1 -31 -2 -35z m1575 -120 c-5 -9 -19 -26 -32
-37 -26 -23 -17 -2 14 33 25 27 31 28 18 4z m-167 -174 c-16 -18 -22 -27 -12
-20 10 8 19 9 22 3 7 -11 -25 -23 -74 -27 -33 -2 -34 -2 -16 12 11 8 25 14 30
14 6 1 25 12 41 25 41 34 44 31 9 -7z m-210 -173 c-9 -14 -19 -24 -21 -21 -6
6 20 46 30 46 4 0 0 -11 -9 -25z m32 -72 c-18 -33 -21 -26 -6 13 6 15 13 24
16 21 3 -3 -1 -18 -10 -34z m-120 -169 c-4 -14 -9 -24 -12 -21 -3 2 -2 17 2
31 3 15 9 25 11 22 3 -3 2 -17 -1 -32z m77 -283 c39 -72 44 -86 27 -76 -14 9
-82 145 -73 145 5 0 25 -31 46 -69z m131 -67 c20 -42 34 -79 31 -82 -7 -7 -6
-8 -48 86 -46 103 -32 100 17 -4z m76 -154 c0 -5 -4 -10 -9 -10 -6 0 -13 5
-16 10 -3 6 1 10 9 10 9 0 16 -4 16 -10z m-316 -205 c-4 -8 -10 -15 -15 -15
-4 0 -6 7 -3 15 4 8 10 15 15 15 4 0 6 -7 3 -15z m573 9 c-3 -3 -12 -4 -19 -1
-8 3 -5 6 6 6 11 1 17 -2 13 -5z m-567 -274 c0 -5 -5 -10 -11 -10 -5 0 -7 5
-4 10 3 6 8 10 11 10 2 0 4 -4 4 -10z m276 -47 c-11 -11 -19 6 -11 24 8 17 8
17 12 0 3 -10 2 -21 -1 -24z m-523 -250 c-10 -29 -14 -34 -24 -28 -5 4 -5 14
1 26 13 24 32 25 23 2z"/>
<path d="M2862 4150 c-14 -23 -16 -90 -2 -90 21 0 45 57 41 98 -2 19 -25 14
-39 -8z"/>
<path d="M3460 4161 c0 -10 30 -24 37 -17 3 2 -5 9 -16 16 -12 6 -21 7 -21 1z"/>
<path d="M2050 4142 c0 -14 23 -32 41 -32 10 0 30 5 46 12 l28 11 -40 8 c-53
10 -75 11 -75 1z"/>
<path d="M2780 4038 c0 -14 7 -32 17 -39 15 -13 16 -11 9 16 -10 41 -26 56
-26 23z"/>
<path d="M3680 4017 c20 -17 51 -46 70 -63 64 -55 200 -219 200 -240 0 -4 -10
1 -22 12 -13 10 0 -6 27 -37 48 -54 92 -119 81 -119 -3 0 -22 24 -42 53 -45
65 -41 55 18 -53 105 -191 162 -401 175 -640 13 -269 -93 -592 -281 -850 -22
-30 -32 -49 -23 -41 9 7 17 9 17 3 0 -13 -25 -33 -32 -26 -3 3 -30 -23 -59
-56 -29 -34 -86 -89 -126 -123 -161 -137 -162 -137 -343 -229 -63 -31 -110
-58 -105 -58 40 1 176 48 225 80 8 5 49 28 90 52 183 103 400 321 522 523 83
137 153 344 179 523 16 114 6 325 -20 422 -24 91 -82 250 -110 305 -12 21 -21
45 -21 51 0 22 -110 207 -167 281 -65 86 -143 167 -214 223 -61 48 -89 53 -39
7z m450 -646 c0 -25 -18 1 -25 34 l-6 30 15 -25 c8 -14 15 -32 16 -39z m82
-573 c-11 -121 -28 -216 -37 -206 -2 2 2 44 10 93 8 50 15 130 15 180 0 67 3
86 12 77 8 -8 8 -43 0 -144z m-59 -304 c-26 -92 -59 -170 -76 -181 -7 -4 -8 0
-2 13 4 10 26 72 49 136 23 65 44 118 47 118 4 0 -4 -39 -18 -86z m-147 -308
c-47 -73 -54 -72 -10 1 19 31 34 62 35 67 0 6 3 6 5 -1 3 -7 -11 -37 -30 -67z
m-66 -96 c-22 -31 -49 -54 -35 -29 10 17 47 59 52 59 3 0 -5 -13 -17 -30z"/>
<path d="M3186 3979 c-45 -53 -26 -80 28 -38 28 22 36 69 12 69 -8 0 -26 -14
-40 -31z"/>
<path d="M3032 3918 c-15 -19 -26 -104 -14 -112 17 -10 35 23 40 74 5 50 -5
63 -26 38z"/>
<path d="M3760 3917 c0 -2 15 -16 33 -33 l32 -29 -29 33 c-28 30 -36 37 -36
29z"/>
<path d="M2880 3884 c-12 -31 -13 -44 -1 -44 10 0 41 45 41 60 0 21 -31 9 -40
-16z"/>
<path d="M2765 3860 c-9 -15 13 -40 37 -40 24 0 19 18 -9 37 -15 10 -23 11
-28 3z"/>
<path d="M3864 3797 c21 -26 40 -47 43 -47 7 0 -56 78 -70 87 -6 4 6 -14 27
-40z"/>
<path d="M3125 3778 c-16 -6 -36 -12 -44 -14 -11 -3 -11 -7 -1 -19 7 -8 19
-15 27 -15 24 0 75 30 71 42 -6 16 -18 17 -53 6z"/>
<path d="M2304 3729 c-10 -16 44 -66 77 -71 37 -6 37 3 -5 46 -34 36 -59 45
-72 25z"/>
<path d="M2490 3675 c0 -12 33 -55 41 -55 15 0 10 26 -9 43 -19 17 -32 22 -32
12z"/>
<path d="M3574 3536 c-43 -19 -58 -66 -20 -66 15 0 66 52 66 68 0 15 -7 15
-46 -2z"/>
<path d="M3307 3519 c-29 -17 -49 -66 -37 -89 13 -25 22 -25 42 -2 16 18 33
102 21 102 -5 0 -16 -5 -26 -11z"/>
<path d="M3239 3363 c-13 -16 -12 -17 4 -4 16 13 21 21 13 21 -2 0 -10 -8 -17
-17z"/>
<path d="M3470 3340 c-12 -8 -9 -10 13 -10 15 0 27 5 27 10 0 13 -20 13 -40 0z"/>
<path d="M3600 3292 c0 -13 32 -40 50 -42 56 -8 82 17 41 40 -24 12 -91 13
-91 2z"/>
<path d="M3323 3235 c-12 -9 -13 -14 -4 -19 16 -10 83 2 76 13 -9 15 -54 19
-72 6z"/>
<path d="M1310 2445 c0 -5 5 -17 10 -25 5 -8 10 -10 10 -5 0 6 -5 17 -10 25
-5 8 -10 11 -10 5z"/>
<path d="M3513 1433 c9 -2 25 -2 35 0 9 3 1 5 -18 5 -19 0 -27 -2 -17 -5z"/>
<path d="M1500 1144 c-24 -13 -58 -24 -75 -24 -17 0 -48 -12 -68 -26 -45 -30
-43 -43 3 -19 17 9 57 20 88 26 55 8 102 33 110 57 5 16 -5 14 -58 -14z"/>
<path d="M3997 1108 c39 -40 103 -76 103 -59 0 10 -48 53 -80 72 -56 34 -64
29 -23 -13z"/>
<path d="M2491 1061 c-12 -22 -21 -46 -21 -53 1 -7 12 9 26 35 14 27 23 51 20
54 -2 3 -14 -13 -25 -36z"/>
<path d="M3472 925 c43 -40 86 -51 52 -14 -19 21 -66 49 -81 49 -4 0 9 -16 29
-35z"/>
<path d="M3100 555 c13 -14 30 -25 38 -25 12 0 9 7 -8 25 -13 14 -30 25 -38
25 -12 0 -9 -7 8 -25z"/>
</g>
</svg>
